PathFileType	4	(X/Y/Z)	C:\Users\WrightLab\Desktop\Jo\P1.2boxCal1-Unnamed.trc
DataRate	CameraRate	NumFrames	NumMarkers	Units	OrigDataRate	OrigDataStartFrame	OrigNumFrames
100.00	100.00	       22	0	mm	100.00	311	       827
Frame#	Time	
		

311	3.100	-670.84351	349.52151	1000.85638	89.60055	323.14297	-464.48422	-190.96962	360.40375	1306.82959	-213.21761	355.09167	982.98846	-655.59320	354.47733	1314.05176	-413.49939	311.92456	-187.05878				51.26480	332.06317	-141.31564	-383.18555	306.41882	-523.54041	
312	3.110	-670.62982	349.71198	1000.80341	89.55438	323.10492	-464.56897	-190.61234	360.47440	1306.54504	-213.22067	355.05457	982.97961	-655.50146	354.52252	1314.07458	-413.55026	312.08737	-187.04132				51.24839	332.04807	-141.32480	-383.49603	306.36414	-523.90051	
313	3.120	-670.57202	349.87970	1000.97876	89.48617	323.12424	-464.51389	-190.61853	360.50003	1306.53833	-213.22426	355.07449	982.97778	-655.67090	354.30646	1314.01233	-413.50201	311.91312	-187.06070				51.26090	332.04507	-141.31783	-383.16556	306.39752	-523.55005	
314	3.130	-670.58246	349.86572	1000.97412	89.56225	323.12238	-464.52841	-190.88756	360.33124	1306.70190	-213.31757	355.20441	982.96893	-655.67047	354.22476	1314.30127	-413.49365	311.91946	-187.05954				51.01587	332.24908	-141.51025	-383.17358	306.41568	-523.53979	
315	3.140	-670.60913	349.72769	1000.81464	89.66580	323.17352	-464.41989	-190.90369	360.35281	1306.70081	-213.34488	355.21188	982.96759	-655.75836	354.26428	1314.65857	-413.55969	312.08112	-187.04314				51.26291	332.06631	-141.33415	-383.16306	306.42270	-523.53284	
316	3.150	-670.83521	349.53674	1000.86029	89.41930	323.09839	-464.56683	-190.89288	360.33475	1306.71033	-213.33496	355.19797	982.97272	-655.52728	354.51730	1314.07422	-413.56277	312.07581	-187.05031				51.11583	332.28174	-141.44994	-383.48529	306.35257	-523.90576	
317	3.160	-670.84387	349.67490	1001.06427	89.62556	323.13141	-464.51511	-190.90573	360.33795	1306.70618	-213.32813	355.21924	982.95721	-655.75568	354.36374	1314.26367	-413.50760	311.91092	-187.06364				50.90947	332.32709	-141.45628	-383.16965	306.42706	-523.53137	
318	3.170	-670.56116	349.88989	1000.98328	89.53093	323.20859	-464.31842	-190.91399	360.31754	1306.69617	-213.33948	355.21579	982.96027	-655.57379	354.58389	1314.32813	-413.40839	312.01743	-186.98923				50.91297	332.32330	-141.44292	-383.18762	306.42200	-523.53876	
319	3.180	-670.63336	349.70819	1000.80493	89.61572	323.13089	-464.51508	-190.95752	360.39819	1306.82104	-213.19836	355.06918	982.98999	-655.76672	354.34735	1314.25476	-413.50247	311.91296	-187.06403				50.92851	332.32913	-141.44746	-383.16742	306.40649	-523.54449	
320	3.190	-670.61884	349.70264	1000.80194	89.65456	323.04587	-464.72321	-190.70164	360.51523	1306.66724	-213.33159	355.20795	982.95587	-655.67737	354.30246	1314.00891	-413.56180	312.08582	-187.04422				50.84314	332.47037	-141.61855	-383.16977	306.40698	-523.54474	
321	3.200	-670.55048	350.01508	1000.54846	89.45325	322.98074	-464.85217	-190.98744	360.39215	1306.82153	-213.47191	354.90042	983.13586	-655.75220	354.35727	1314.25916	-413.55530	312.07462	-187.04845				51.08274	332.45032	-141.57965	-383.61945	306.71393	-523.89386	
322	3.210	-670.61780	349.83151	1000.37018	89.46409	323.05481	-464.67673	-190.96506	360.38611	1306.81128	-213.61095	355.03909	983.10175	-655.75842	354.27838	1314.66272	-413.55725	312.09128	-187.03929				50.86659	332.48254	-141.60919	-383.18060	306.42914	-523.53247	
323	3.220	-670.61694	349.85562	1000.37567	89.54532	323.15179	-464.45593	-190.70354	360.54028	1306.68945	-213.21127	355.04349	982.98010	-655.75739	354.36978	1314.25830	-413.55756	312.08301	-187.04112				50.85482	332.48914	-141.60591	-383.17093	306.40891	-523.54370	
324	3.230	-670.81464	349.63361	1000.41382	89.50555	323.15103	-464.45248	-190.95883	360.38629	1306.81396	-213.20781	355.04266	982.97711	-655.75476	354.26599	1314.65991	-413.56888	312.07843	-187.04971				50.83852	332.47678	-141.61681	-383.61212	306.71405	-523.89215	
325	3.240	-670.56030	349.99469	1000.53979	89.44200	323.15686	-464.43024	-190.71278	360.54037	1306.67200	-213.46480	354.93564	983.12598	-655.75604	354.27206	1314.66052	-413.42297	312.00479	-186.99066				50.86182	332.48328	-141.60097	-383.62225	306.72342	-523.88818	
326	3.250	-670.79333	349.80783	1000.63971	89.59612	323.08539	-464.62115	-190.97285	360.37558	1306.81006	-213.19365	355.08701	982.99304	-655.74915	354.26297	1314.65979	-413.41495	312.00577	-186.98999				50.85822	332.48383	-141.59991	-383.17987	306.41678	-523.54053	
327	3.260	-670.79272	349.79990	1000.63361	89.43635	323.09253	-464.58304	-190.98331	360.39160	1306.82751	-213.22690	355.07031	982.99237	-655.75195	354.27097	1314.66064	-413.55637	312.07431	-187.05054				50.84386	332.47058	-141.62433	-383.18073	306.42380	-523.53607	
328	3.270	-670.59564	349.81973	1000.36652	89.54685	323.08267	-464.62109	-190.98767	360.36795	1306.80176	-213.21767	355.07196	982.98975	-655.60059	354.49237	1314.72217	-413.38925	311.86298	-187.01660				50.85152	332.46268	-141.61595	-383.15482	306.40063	-523.54559	
329	3.280	-670.58472	349.86469	1000.96997	89.54522	323.18826	-464.36880	-190.94785	360.38525	1306.81458	-213.20212	355.06467	982.97968	-655.75256	354.27588	1314.65906	-413.49561	311.91763	-187.05937				51.21228	332.19745	-141.48486	-383.17587	306.42841	-523.53192	
330	3.290	-670.62762	349.73315	1000.81396	89.63622	323.05463	-464.69989	-190.98026	360.37915	1306.81934	-213.46852	354.91107	983.14349	-655.51727	354.44247	1314.36255	-413.38980	311.86285	-187.01602				51.24081	332.21658	-141.47479	-383.49741	306.35684	-523.90564	
331	3.300	-670.84869	349.52872	1000.85608	89.56960	323.09988	-464.58307	-190.68779	360.55722	1306.67590	-213.22079	355.07211	982.99121	-655.48975	354.43930	1314.36682	-413.55585	312.08310	-187.04411				51.04923	332.10999	-141.36156	-383.50037	306.35324	-523.90869	
332	3.310	-670.62299	349.69562	1000.80347	89.42043	323.09473	-464.57571	-190.71336	360.53656	1306.67395	-213.32942	355.20792	982.96204	-655.67493	354.30624	1314.00806	-413.48871	311.91617	-187.06319				51.05072	332.08817	-141.35141	-383.62930	306.71487	-523.89545	
